<svg xmlns="http://www.w3.org/2000/svg" width="164.927" height="168" viewBox="0 0 164.927 168">
  <path id="Sustracción_1" data-name="Sustracción 1" d="M-803.5,168a88.173,88.173,0,0,1-33.669-6.6,87.345,87.345,0,0,1-14.693-7.745,86.626,86.626,0,0,1-12.8-10.257,85.2,85.2,0,0,1-10.562-12.432A83.278,83.278,0,0,1-883.2,116.7,81.4,81.4,0,0,1-890,84a81.4,81.4,0,0,1,6.8-32.7,83.275,83.275,0,0,1,7.975-14.269A85.2,85.2,0,0,1-864.665,24.6a86.628,86.628,0,0,1,12.8-10.257A87.348,87.348,0,0,1-837.17,6.6,88.173,88.173,0,0,1-803.5,0a88.039,88.039,0,0,1,47.067,13.512,86.219,86.219,0,0,1,18.177,15.334,83.849,83.849,0,0,1,13.182,19.671C-739.151,30.907-761.926,20.393-786,20.393c-41.355,0-75,30.277-75,67.492s33.645,67.491,75,67.491a79.817,79.817,0,0,0,45.552-13.871,86.44,86.44,0,0,1-13.012,11.021,87.263,87.263,0,0,1-15.107,8.343,87.877,87.877,0,0,1-16.811,5.285A89.589,89.589,0,0,1-803.5,168Z" transform="translate(890 0)" fill="#030303"/>
  <path id="Sustracción_2" data-name="Sustracción 2" d="M-845.65,122.862a58.7,58.7,0,0,1-18.094-7.454,55.127,55.127,0,0,1-13.976-12.523,55.681,55.681,0,0,1-9.006-16.567,60.4,60.4,0,0,1-3.19-19.588A55.808,55.808,0,0,1-885,43.765a58.742,58.742,0,0,1,13.394-18.754,62.623,62.623,0,0,1,19.867-12.644A65.3,65.3,0,0,1-827.415,7.73a66.43,66.43,0,0,1,13.837,1.451,64.7,64.7,0,0,1,12.757,4.142,63.411,63.411,0,0,1,11.34,6.514,61.632,61.632,0,0,1,9.586,8.569c-.741-.347-1.517-.693-2.307-1.029a74.476,74.476,0,0,0-28.864-5.807c-25.5,0-47.439,12.851-55.881,32.739-10.027,23.62-1.468,51.169,21.3,68.551Z" transform="translate(930.915 24.27)" fill="#373737"/>
  <rect id="Rectángulo_27" data-name="Rectángulo 27" width="11" height="37" transform="translate(87 101)"/>
  <rect id="Rectángulo_30" data-name="Rectángulo 30" width="11" height="37" transform="translate(111 114) rotate(90)"/>
  <rect id="Rectángulo_28" data-name="Rectángulo 28" width="11" height="37" transform="translate(129 101)"/>
  <rect id="Rectángulo_29" data-name="Rectángulo 29" width="11" height="37" transform="translate(153 114) rotate(90)"/>
</svg>